HIERARCHY
ROOT Hips
{
	OFFSET 0.000000 0.000000 0.000000
	CHANNELS 6 Xposition Yposition Zposition Zrotation Yrotation Xrotation 
	JOINT LHipJoint
	{
		OFFSET 0.000000 0.000000 0.000000
		CHANNELS 3 Zrotation Yrotation Xrotation
		JOINT LeftUpLeg
		{
			OFFSET 1.363060 -1.794630 0.839290
			CHANNELS 3 Zrotation Yrotation Xrotation
			JOINT LeftLeg
			{
				OFFSET 2.448110 -6.726130 0.000000
				CHANNELS 3 Zrotation Yrotation Xrotation
				JOINT LeftFoot
				{
					OFFSET 2.562200 -7.039590 0.000000
					CHANNELS 3 Zrotation Yrotation Xrotation
					JOINT LeftToeBase
					{
						OFFSET 0.157640 -0.433110 2.322550
						CHANNELS 3 Zrotation Yrotation Xrotation
						End Site
						{
							OFFSET 0.000000 0.000000 0.000000
						}
					}
				}
			}
		}
	}
	JOINT RHipJoint
	{
		OFFSET 0.000000 0.000000 0.000000
		CHANNELS 3 Zrotation Yrotation Xrotation
		JOINT RightUpLeg
		{
			OFFSET -1.305520 -1.794630 0.839290
			CHANNELS 3 Zrotation Yrotation Xrotation
			JOINT RightLeg
			{
				OFFSET -2.542530 -6.985550 0.000000
				CHANNELS 3 Zrotation Yrotation Xrotation
				JOINT RightFoot
				{
					OFFSET -2.568260 -7.056230 0.000000
					CHANNELS 3 Zrotation Yrotation Xrotation
					JOINT RightToeBase
					{
						OFFSET -0.164730 -0.452590 2.363150
						CHANNELS 3 Zrotation Yrotation Xrotation
						End Site
						{
							OFFSET 0.000000 0.000000 0.000000
						}
					}
				}
			}
		}
	}
}
MOTION
Frames: 16
Frame Time: 0.008333
1.551906 21.942824 0.817764 22.772415 -66.758929 1.100302 -9.843197 2.003610 2.175506 -8.876437 4.756104 -48.254600 -0.084740 3.188432 56.907011 2.159188 12.865068 6.339109 3.117000 -0.000000 -53.156300 13.461676 -3.081349 -0.432400 -9.100017 -9.761780 -13.490840 -2.753764 -4.186325 76.572717 -1.151331 0.565184 11.505156 0.767200 -0.000000 -84.305499
1.444995 22.095460 0.792119 22.090446 -65.534302 2.381468 -9.634863 1.750175 1.971080 -10.232635 4.882391 -53.460170 -0.027746 3.747802 60.493709 2.232855 12.993312 3.652613 2.676400 -0.000001 -50.843400 13.667054 -2.983789 -0.749687 -9.986608 -9.214537 -14.827604 -3.478521 -4.732205 84.153880 -1.238306 -1.103935 8.458734 0.251800 -0.000001 -82.463300
1.336378 22.230745 0.769576 21.431438 -64.337708 3.781535 -9.417454 1.541871 1.845913 -11.776495 4.719102 -58.982011 0.056455 4.336516 63.770261 2.302498 12.978505 1.158163 2.231800 -0.000000 -48.436500 13.857986 -2.910583 -1.039713 -10.998475 -8.482262 -16.077444 -4.352105 -5.287382 91.488461 -1.326441 -2.758120 5.345309 -0.121300 -0.000000 -80.482800
1.224857 22.348009 0.751571 20.800679 -63.182830 5.305220 -9.198899 1.389275 1.810098 -13.484293 4.193814 -64.793565 0.166798 4.948010 66.754200 2.368905 12.837033 -1.189142 1.792800 0.000000 -46.062000 14.024094 -2.865859 -1.287599 -12.165097 -7.498719 -17.211970 -5.382991 -5.842781 98.514129 -1.411576 -4.310242 2.180037 -0.333500 0.000001 -78.413800
1.109146 22.446665 0.739333 20.202126 -62.093132 6.960072 -8.990151 1.303267 1.865946 -15.308212 3.251718 -70.846784 0.298386 5.576090 69.458488 2.432022 12.577953 -3.433213 1.362800 0.000000 -43.840600 14.152611 -2.854219 -1.477065 -13.514381 -6.181572 -18.199074 -6.571206 -6.386549 105.154133 -1.488153 -5.670980 -1.001333 -0.384000 -0.000000 -76.317800
0.988426 22.527087 0.734403 19.606661 -61.108612 8.774456 -8.807341 1.297104 2.011289 -17.166547 1.871144 -77.084402 0.443543 6.217061 71.892284 2.489856 12.198552 -5.605270 0.943700 -0.000000 -41.885800 14.224126 -2.879189 -1.589563 -15.053583 -4.435077 -19.008742 -7.900189 -6.899292 111.317539 -1.548563 -6.753500 -4.151154 -0.292099 -0.000000 -74.146100
0.861790 22.590087 0.736968 19.012298 -60.287991 10.721592 -8.664504 1.397223 2.244379 -18.991584 0.073245 -83.421333 0.590219 6.866529 74.049132 2.538714 11.693439 -7.711966 0.542400 0.000000 -40.325000 14.222286 -2.945086 -1.596068 -16.809137 -2.161938 -19.616590 -9.332533 -7.358280 116.908275 -1.583835 -7.481701 -7.193964 -0.097900 -0.000000 -72.049700
0.729171 22.637414 0.748786 18.324808 -59.661507 12.822040 -8.591857 1.621298 2.581018 -20.665967 -2.093318 -89.783594 0.731173 7.518486 75.935864 2.572686 11.048927 -9.735327 0.171200 -0.000000 -39.280600 14.120626 -3.072059 -1.462442 -18.737057 0.694174 -20.011907 -10.797625 -7.737159 121.826941 -1.584206 -7.810152 -10.058824 0.145100 -0.000000 -69.970100
0.590333 22.670865 0.770211 17.500572 -59.175054 15.066682 -8.610724 1.947634 3.009741 -22.114655 -4.589681 -96.070193 0.855204 8.158511 77.544153 2.584658 10.260508 -11.629862 -0.151600 0.000000 -38.864300 13.908884 -3.294646 -1.180334 -20.808460 4.107499 -20.220817 -12.210692 -8.041881 125.976190 -1.540150 -7.723284 -12.668133 0.379100 -0.000000 -67.865100
0.445642 22.692667 0.801498 16.506480 -58.749461 17.487657 -8.729613 2.332572 3.483275 -23.268094 -7.384959 -102.189922 0.948433 8.775009 78.855124 2.567783 9.335893 -13.334069 -0.407500 -0.000001 -39.141000 13.584461 -3.619659 -0.794080 -22.968482 7.954041 -20.324687 -13.478935 -8.290170 129.279112 -1.450835 -7.272173 -14.949050 0.556601 0.000000 -65.827000
0.295192 22.704453 0.841559 15.362865 -58.344284 20.058141 -8.941743 2.761382 3.959657 -24.105457 -10.430452 -108.044138 0.994738 9.361460 79.841351 2.517621 8.297948 -14.788236 -0.583900 -0.000001 -40.098200 13.164502 -4.022921 -0.355504 -25.174103 12.020683 -20.442601 -14.514687 -8.492192 131.704608 -1.326930 -6.574841 -16.857708 0.655300 -0.000000 -63.967100
0.139475 22.707684 0.888818 14.109904 -57.921921 22.709741 -9.236928 3.233521 4.414382 -24.630322 -13.673489 -113.527252 0.980053 9.912752 80.478369 2.433018 7.181238 -15.945691 -0.678200 0.000000 -41.641500 12.681592 -4.468558 0.091106 -27.358778 16.011937 -20.695030 -15.249695 -8.650900 133.269773 -1.190967 -5.804196 -18.396776 0.684500 -0.000000 -62.325600
-0.021004 22.703690 0.940653 12.818085 -57.445872 25.346121 -9.598580 3.748440 4.828767 -24.879500 -17.057731 -118.531874 0.891395 10.424674 80.745529 2.315386 6.025014 -16.779009 -0.697701 -0.000000 -43.618800 12.180475 -4.915845 0.510857 -29.443579 19.603928 -21.179109 -15.656076 -8.769034 134.041952 -1.070593 -5.142511 -19.615589 0.677500 -0.000000 -60.919400
-0.185651 22.693357 0.993816 11.568171 -56.890393 27.867822 -10.006166 4.300489 5.188538 -24.912774 -20.517670 -122.962776 0.718520 10.893655 80.631359 2.167480 4.865373 -17.281742 -0.657000 -0.000000 -45.854400 11.705612 -5.322930 0.878352 -31.334169 22.513548 -21.937772 -15.748739 -8.848800 134.128957 -0.988558 -4.728597 -20.598214 0.675100 -0.000000 -59.719201
-0.353522 22.677705 1.044878 10.429366 -56.242458 30.185063 -10.438169 4.875421 5.485376 -24.804102 -23.974616 -126.740323 0.456420 11.314112 80.137881 1.992189 3.730362 -17.465128 -0.573900 0.000000 -48.181700 11.289341 -5.650780 1.174856 -32.919611 24.548051 -22.940912 -15.569640 -8.890734 133.653440 -0.956056 -4.628052 -21.437269 0.709900 -0.000000 -58.658400
-0.523636 22.657419 1.090614 9.456808 -55.500076 32.222691 -10.873083 5.450207 5.719535 -24.635542 -27.343854 -129.806764 0.107261 11.677130 79.283435 1.791859 2.637858 -17.352496 -0.465500 -0.000000 -50.455300 10.947661 -5.867437 1.385286 -34.089634 25.619814 -24.099471 -15.173862 -8.894749 132.739128 -0.971476 -4.829311 -22.207315 0.798700 -0.000000 -57.655800
